<svg xmlns="http://www.w3.org/2000/svg" version="1.1" viewBox="-5.0 -10.0 110.0 135.0">
 <path d="m69.309 9.3672h-38.617c-4.082 0-7.3984 3.3203-7.3984 7.3984l-0.003907 66.469c0 4.082 3.3203 7.3984 7.3984 7.3984h38.617c4.082 0 7.3984-3.3203 7.3984-7.3984l0.003906-66.469c0-4.082-3.3203-7.3984-7.3984-7.3984zm4.0312 73.867c0 2.2227-1.8086 4.0312-4.0312 4.0312h-38.617c-2.2227 0-4.0312-1.8086-4.0312-4.0312v-66.469c0-2.2227 1.8086-4.0312 4.0312-4.0312h38.617c2.2227 0 4.0312 1.8086 4.0312 4.0312l-0.003906 66.469z"/>
 <path d="m50 24.887-4.7305 9.5898-10.582 1.5352 7.6562 7.4648-1.8047 10.535 9.4609-4.9727 9.4609 4.9727-1.8047-10.535 7.6562-7.4648-10.582-1.5352z"/>
 <path d="m35.617 66.336h28.758v3.3672h-28.758z"/>
 <path d="m42.711 73.43h14.574v3.3672h-14.574z"/>
 </svg>