<svg width="54" height="82" viewBox="0 0 54 82" fill="none" xmlns="http://www.w3.org/2000/svg">
<path d="M46.0193 0H7.40231C3.32031 0 0.00390625 3.3203 0.00390625 7.3984L0 73.8674C0 77.9494 3.3203 81.2658 7.3984 81.2658H46.0154C50.0974 81.2658 53.4138 77.9455 53.4138 73.8674L53.4177 7.3984C53.4177 3.3164 50.0974 0 46.0193 0ZM50.0505 73.867C50.0505 76.0897 48.2419 77.8982 46.0193 77.8982H7.40231C5.17961 77.8982 3.37111 76.0896 3.37111 73.867V7.398C3.37111 5.1753 5.17971 3.3668 7.40231 3.3668H46.0193C48.242 3.3668 50.0505 5.1754 50.0505 7.398L50.0466 73.867H50.0505Z" fill="black"/>
<path d="M26.7103 15.5198L21.9798 25.1096L11.3978 26.6448L19.054 34.1096L17.2493 44.6446L26.7102 39.6719L36.1711 44.6446L34.3664 34.1096L42.0226 26.6448L31.4406 25.1096L26.7103 15.5198Z" fill="black"/>
<path d="M12.3273 56.9688H41.0853V60.336H12.3273V56.9688Z" fill="black"/>
<path d="M19.4213 64.0628H33.9953V67.43H19.4213V64.0628Z" fill="black"/>
</svg>
