<svg xmlns="http://www.w3.org/2000/svg" data-name="Layer 1" viewBox="0 0 100 125" x="0px" y="0px"><title>Artboard 19</title><path d="M26,77H37.71A13.92,13.92,0,0,0,51.83,61l22-14.68A13.82,13.82,0,1,0,54.69,27.15L40,49.16A14.13,14.13,0,0,0,38,49a15,15,0,0,0-7.09,1.82,13.43,13.43,0,0,0-6.91,12,4.07,4.07,0,0,1-1.2,2.9l-1,1A6,6,0,0,0,26,77ZM66.18,27a7.82,7.82,0,0,1,4.34,14.32l-2.4,1.6a18.19,18.19,0,0,0-10-10l1.6-2.4A7.82,7.82,0,0,1,66.18,27ZM54.61,38.09a11.68,11.68,0,0,1,8.31,8.3L49.63,55.24c-.21-.31-.41-.63-.65-.92a14.05,14.05,0,0,0-3.22-3ZM27,70a10.1,10.1,0,0,0,3-7.14,7.51,7.51,0,0,1,3.73-6.7A9.06,9.06,0,0,1,38,55a8,8,0,0,1,7.77,10,8.18,8.18,0,0,1-8.06,6H26Z"/><path d="M22,29V40h6V29a1,1,0,0,1,1-1H40V22H29A7,7,0,0,0,22,29Z"/><path d="M79,61H73V72a1,1,0,0,1-1,1H61v6H72a7,7,0,0,0,7-7Z"/><text x="0" y="115" fill="#000000" font-size="5px" font-weight="bold" font-family="'Helvetica Neue', Helvetica, Arial-Unicode, Arial, Sans-serif">Created by Gregor Cresnar</text><text x="0" y="120" fill="#000000" font-size="5px" font-weight="bold" font-family="'Helvetica Neue', Helvetica, Arial-Unicode, Arial, Sans-serif">from the Noun Project</text></svg>