<?xml version="1.0" encoding="utf-8"?>
<!-- Generator: Adobe Illustrator 26.0.3, SVG Export Plug-In . SVG Version: 6.00 Build 0)  -->
<svg version="1.1" id="Layer_1" xmlns="http://www.w3.org/2000/svg" xmlns:xlink="http://www.w3.org/1999/xlink" x="0px" y="0px"
	 viewBox="0 0 303.6 262.9" style="enable-background:new 0 0 303.6 262.9;" xml:space="preserve">
<style type="text/css">
	.st0{fill:#DE7826;}
</style>
<path class="st0" d="M286.4,131.6c-5.5-5.6-7.7-7.6-7.6-18.4C279,102.4,281,76.3,281,56c0-10.4-0.4-19.8-1.1-30
	c-0.4-5.9-1.4-10.8-2.7-14.8c-1.9-5.8-6.1-9.4-11.9-9.4s-10,3.5-15.4,7.3c-14.7,10.3-36.7,28.9-51.4,37.5c-6.9,4.1-12.2,6.1-16,2.7
	c-1-0.8-18.6-14.4-23.1-17.7c-1.8-1.3-4-2.2-6.4-2.4c0,0-0.7-0.1-1.2-0.1c0,0,0,0,0,0s0,0,0,0c-0.5,0-1.2,0.1-1.2,0.1
	c-2.4,0.2-4.6,1.1-6.4,2.4c-4.5,3.3-22.1,16.9-23.1,17.7c-3.8,3.4-9.1,1.4-16-2.7C90.5,38,68.4,19.4,53.7,9.1
	c-5.4-3.8-9.6-7.3-15.4-7.3s-10,3.6-11.9,9.4c-1.3,4-2.3,8.9-2.7,14.8c-0.7,10.2-1.1,19.6-1.1,30c0,20.3,2,46.4,2.1,57.2
	c0.1,10.8-2.1,12.9-7.6,18.4c-6.5,6.6-13.8,10.7-13.6,18.1c0.1,3,1.2,6.1,4.1,8.8c7.3,6.8,37.9,30.2,68.5,52.7
	c30.6,22.5,63.2,46.1,70.4,48.6c2.4,0.8,3.9,1.3,5.3,1.3s2.8-0.4,5.3-1.3c7.2-2.5,39.8-26.1,70.4-48.6
	c30.6-22.5,61.2-45.9,68.5-52.7c2.9-2.7,4-5.8,4.1-8.8C300.3,142.3,292.9,138.2,286.4,131.6z M206.9,61.1c0.7-6.9,6.5-12.1,14-19.5
	c7.4-7.4,16.6-14.3,23-19c7-5.1,12-8.2,16.8-8.2c1.5,0,3,0.3,4.6,0.9c4,1.5,7.4,7.2,8,16.8c0.4,6.3,0.7,11.3,0.6,16.8
	c0,6.1-0.3,13-1.1,23.1c-1.2,15.8-3.2,28.9-7.1,34c-1.4,1.7-3.4,4.1-9.5,0.5c-5-2.9-36.3-28-42.4-33.2
	C207.7,68.1,206.5,64.2,206.9,61.1z M30.3,32.1c0.6-9.6,4-15.3,8-16.8c1.6-0.6,3.1-0.9,4.6-0.9c4.8,0,9.8,3.1,16.8,8.2
	c6.4,4.7,15.6,11.6,23,19c7.5,7.4,13.3,12.6,14,19.5c0.3,3.1-0.8,7-6.9,12.2c-6.1,5.2-37.4,30.3-42.4,33.2c-6.1,3.6-8.1,1.2-9.5-0.5
	c-3.9-5.1-5.9-18.2-7.1-34c-0.8-10.1-1.1-17-1.1-23.1C29.6,43.4,29.9,38.4,30.3,32.1z M283,158.3c-7.8,7.4-66.9,53.1-99.4,73.6
	c-3.6,2.1-6.5,3.6-10.4,3.6c-6.6,0-12.2-3.8-14.7-9.2c-2.3-5.2-3.4-32.1-4.1-55.8c-0.8-24.4-1.4-47.4-1.7-49
	c-0.1-0.5-0.2-0.8-0.6-0.9c-0.1,0-0.2,0-0.3,0s-0.2,0-0.3,0c-0.3,0.1-0.5,0.4-0.6,0.9c-0.3,1.6-1,24.6-1.7,49
	c-0.7,23.7-1.8,50.6-4.1,55.8c-2.5,5.4-8.1,9.2-14.7,9.2c-3.9,0-6.8-1.5-10.4-3.6c-32.5-20.5-91.6-66.2-99.4-73.6
	c-3.9-3.7-5.6-6.5-5.6-9.1c0-2.6,1.7-5.6,5.6-9.1c11.9-10.9,99-75.7,114.8-86c3.9-2.5,10.5-7.7,16.3-7.7c5.9,0,12.5,5.2,16.3,7.7
	c15.8,10.3,102.9,75.1,114.8,86c3.9,3.5,5.6,6.5,5.6,9.1C288.6,151.8,286.9,154.6,283,158.3z"/>
</svg>
