<?xml version="1.0" encoding="utf-8"?>
<!-- Generator: Adobe Illustrator 26.0.3, SVG Export Plug-In . SVG Version: 6.00 Build 0)  -->
<svg version="1.1" id="Layer_1" xmlns="http://www.w3.org/2000/svg" xmlns:xlink="http://www.w3.org/1999/xlink" x="0px" y="0px"
	 viewBox="0 0 308 267" style="enable-background:new 0 0 308 267;" xml:space="preserve">
<style type="text/css">
	.st0{fill:#DE7727;}
</style>
<path class="st0" d="M293.6,136.6c-1.5-1.4-3.1-2.8-4.6-4.3l-0.3-0.3c-5.1-5.1-6.8-6.9-6.7-16.6c0.1-4.1,0.4-10.5,0.8-17.8
	c0.6-11.8,1.3-26.5,1.3-38.9c0-9.8-0.3-19-1.1-29.9c-0.4-5.6-1.3-10.7-2.8-15.2C278,6.8,273,2.9,266.5,2.9c-5.8,0-9.9,2.9-14.7,6.4
	c-0.6,0.4-1.1,0.8-1.7,1.2c-5.6,3.9-12.1,9-19.1,14.3c-11.2,8.6-22.9,17.6-31.8,22.8c-7.4,4.3-11.1,5.1-13.6,2.9
	c-1-0.9-18.7-14.5-23-17.7c-2.1-1.6-4.7-2.5-7.4-2.8c0,0-0.8-0.1-1.3-0.1c-0.5,0-1.3,0.1-1.3,0.1c-2.7,0.2-5.2,1.2-7.4,2.8
	c-4.3,3.2-22,16.8-23,17.7c-2.5,2.2-6.2,1.4-13.6-2.9C99.8,42.4,88.2,33.5,77,24.8C70,19.5,63.5,14.4,57.9,10.5
	c-0.6-0.4-1.2-0.8-1.7-1.2c-4.8-3.4-8.9-6.4-14.7-6.4C35,2.9,30,6.8,27.8,13.6c-1.5,4.5-2.4,9.6-2.8,15.2
	c-0.7,10.9-1.1,20.1-1.1,29.9c0,12.4,0.7,27.1,1.3,38.9c0.4,7.4,0.7,13.8,0.8,17.9c0.1,9.7-1.6,11.4-6.7,16.6l-0.3,0.3
	c-1.5,1.5-3.1,2.9-4.6,4.3c-5,4.4-9.7,8.6-9.5,15.1c0.1,3.9,1.7,7.3,4.7,10.1c7.8,7.3,40.2,31.9,68.1,52.4
	c32.2,23.7,63,45.9,70.4,48.5c2.6,0.9,4.3,1.4,5.9,1.4c1.6,0,3.3-0.5,5.9-1.4c7.4-2.6,38.2-24.8,70.4-48.5
	c28-20.6,60.3-45.2,68.1-52.4c3-2.8,4.6-6.2,4.7-10.1C303.2,145.2,298.6,141,293.6,136.6z M91.2,74.3c-6.2,5.3-37,30-41.8,32.7
	c-4.6,2.7-5.7,1.4-6.8,0c-3.1-4.1-5.3-14.7-6.6-32.7c-0.8-9.5-1.1-16.5-1.1-22.8c-0.1-5.2,0.2-9.9,0.6-16.5v0
	c0.6-9.4,3.9-13.9,6.6-14.9c1.4-0.5,2.6-0.8,3.9-0.8c4.1,0,8.6,2.7,15.5,7.7c7.3,5.4,15.7,11.8,22.6,18.7l1.4,1.4
	C92,53.6,96.8,58.3,97.4,64C97.5,65.1,97.9,68.6,91.2,74.3z M210.6,64c0.6-5.7,5.3-10.3,11.9-16.8l1.4-1.4
	c6.8-6.8,15.3-13.3,22.6-18.6c6.9-5,11.4-7.8,15.5-7.8c1.2,0,2.5,0.3,3.9,0.8c2.7,1,6.1,5.5,6.6,14.9c0.4,6.6,0.7,11.3,0.6,16.5
	c0,6.3-0.3,13.3-1.1,22.8c-1.4,17.9-3.5,28.6-6.6,32.6c-1.2,1.5-2.3,2.7-6.9,0c-4.7-2.8-35.6-27.4-41.8-32.7
	C210.1,68.6,210.5,65.1,210.6,64z M154,120.8c-0.3,0-0.6,0.1-0.9,0.2c-0.7,0.2-1.6,0.9-1.9,2.4c-0.3,1.5-0.7,16-1.5,41.5l-0.2,7.3
	c-0.5,16-1.5,49.3-3.9,54.6c-2.2,4.8-7.2,7.9-12.8,7.9c-3.4,0-6-1.4-9.2-3.3c-32.4-20.5-90.9-65.8-98.3-72.8
	c-3.4-3.2-4.9-5.6-4.9-7.6c0-2,1.7-4.6,4.9-7.6c11.5-10.5,97.3-74.5,113.6-85.1c0.6-0.4,1.2-0.8,1.8-1.2c3.6-2.4,8.9-6.1,13.3-6.1
	c4.4,0,9.8,3.7,13.3,6.1c0.7,0.4,1.3,0.9,1.8,1.2c16.3,10.6,102.1,74.6,113.6,85.1c3.3,3,4.9,5.5,4.9,7.6c0,2-1.6,4.4-4.9,7.6
	c-7.4,7-65.8,52.3-98.2,72.7c-3.3,1.9-5.9,3.3-9.3,3.3c-5.6,0-10.6-3.1-12.8-7.9c-2.4-5.2-3.4-38.6-3.9-54.6l-0.2-7.3
	c-0.8-25.5-1.2-40-1.5-41.5c-0.3-1.6-1.2-2.2-1.9-2.4C154.6,120.8,154.3,120.8,154,120.8z"/>
</svg>
