<?xml version="1.0" encoding="utf-8"?>
<!-- Generator: Adobe Illustrator 26.0.3, SVG Export Plug-In . SVG Version: 6.00 Build 0)  -->
<svg version="1.1" id="Layer_1" xmlns="http://www.w3.org/2000/svg" xmlns:xlink="http://www.w3.org/1999/xlink" x="0px" y="0px"
	 viewBox="0 0 308 267" style="enable-background:new 0 0 308 267;" xml:space="preserve">
<style type="text/css">
	.st0{fill:#DE7727;}
</style>
<path class="st0" d="M294.6,135.5c-1.5-1.3-3.1-2.7-4.6-4.2l-0.3-0.3c-5-5.1-6.4-6.4-6.2-15.5c0.1-4.1,0.4-10.4,0.7-17.8
	c0.6-11.8,1.3-26.5,1.3-39c0-9.8-0.4-19.1-1.1-30c-0.4-5.7-1.3-10.9-2.8-15.5c-2.4-7.5-8-11.7-15.1-11.7c-6.3,0-10.8,3.2-15.6,6.6
	c-0.6,0.4-1.1,0.8-1.7,1.2c-5.6,3.9-12.2,9-19.1,14.3c-11.2,8.6-22.8,17.5-31.6,22.7c-7.6,4.5-10.2,4.5-11.8,3.1
	c-1.2-1-19.3-15-23.1-17.8c-2.4-1.8-5.2-2.8-8.2-3.1c0,0-0.9-0.1-1.4-0.1c-0.6,0-1.4,0.1-1.4,0.1c-3,0.2-5.8,1.3-8.1,3.1
	c-4.1,3-21.9,16.7-23.1,17.8c-1.6,1.4-4.2,1.4-11.8-3.1c-8.8-5.2-20.4-14.1-31.6-22.7c-7-5.3-13.5-10.4-19.1-14.3
	c-0.6-0.4-1.2-0.8-1.7-1.2c-4.8-3.4-9.3-6.6-15.6-6.6c-7.2,0-12.7,4.3-15.1,11.7c-1.5,4.6-2.5,9.8-2.8,15.5
	c-0.7,10.9-1.1,20.2-1.1,30c0,12.5,0.7,27.2,1.3,39c0.4,7.4,0.7,13.7,0.8,17.8c0.1,9.1-1.2,10.5-6.2,15.5l-0.3,0.3
	c-1.5,1.5-3,2.9-4.6,4.2c-5,4.5-10.2,9.1-10,16.3c0.1,4.3,1.9,8.1,5.2,11.2c7.8,7.3,40.3,32,68.3,52.5
	c44.2,32.5,64.7,46.6,70.8,48.7c2.7,0.9,4.5,1.5,6.4,1.5c1.8,0,3.6-0.5,6.4-1.5c6.1-2.1,26.6-16.2,70.8-48.7
	c28-20.6,60.4-45.2,68.3-52.5c3.3-3,5.1-6.9,5.2-11.2C304.8,144.5,299.6,139.9,294.6,135.5z M90.3,73.2c-6,5.2-37,29.9-41.5,32.6
	c-3.4,2-4,1.5-4.9,0.4c-2.9-3.8-5-14.5-6.3-31.8c-0.7-9.4-1.1-16.4-1.1-22.7c-0.1-5.1,0.2-9.8,0.6-16.4v0c0.5-8.1,3.2-12.7,5.7-13.6
	c1.2-0.5,2.3-0.7,3.3-0.7c3.6,0,8.1,2.7,14.6,7.5c7.3,5.3,15.6,11.7,22.4,18.5l1.4,1.4c6.3,6.2,10.9,10.7,11.5,15.9
	C96,65.1,96.3,68,90.3,73.2z M212.1,64.1c0.6-5.2,5.1-9.6,11.5-15.9l1.4-1.4c6.8-6.8,15.1-13.2,22.4-18.5c6.5-4.7,11-7.5,14.6-7.5
	c1,0,2.1,0.2,3.3,0.7c2.5,0.9,5.2,5.5,5.7,13.6c0.4,6.6,0.7,11.2,0.6,16.4c0,6.2-0.3,13.2-1.1,22.6c-1.3,17.3-3.4,28-6.3,31.8
	c-0.9,1.1-1.5,1.7-4.9-0.4c-4.5-2.7-35.5-27.4-41.5-32.6C211.7,68,212,65.1,212.1,64.1z M154,119.3c-0.5,0-0.9,0.1-1.4,0.2
	c-0.9,0.3-2.5,1.2-2.9,3.6c-0.3,1.5-0.7,13.3-1.5,41.7l-0.2,7.3c-0.5,14.7-1.5,49-3.8,54c-1.9,4.3-6.4,7.1-11.4,7.1
	c-3,0-5.3-1.2-8.5-3.1c-32.4-20.4-90.7-65.6-98-72.5c-3-2.8-4.5-5-4.5-6.5c0-0.9,0.6-2.9,4.4-6.4c11.4-10.5,97.2-74.3,113.4-84.9
	c0.6-0.4,1.2-0.8,1.8-1.2c3.4-2.3,8.6-5.8,12.5-5.8c3.9,0,9.1,3.5,12.5,5.8c0.7,0.5,1.3,0.9,1.8,1.2c16.3,10.6,102,74.4,113.4,84.9
	c3.8,3.5,4.4,5.6,4.4,6.4c0,1.5-1.5,3.7-4.5,6.5c-7.3,7-65.6,52.1-98,72.5c-3.2,1.9-5.5,3.1-8.5,3.1c-5,0-9.5-2.8-11.4-7.1
	c-2.2-5-3.3-39.3-3.8-54l-0.2-7.3c-0.9-28.5-1.3-40.2-1.5-41.7c-0.4-2.4-2-3.3-2.9-3.6C154.9,119.3,154.5,119.3,154,119.3z"/>
</svg>
