<svg width="263" height="263" viewBox="0 0 263 263" fill="none" xmlns="http://www.w3.org/2000/svg">
<rect width="263" height="263" fill="#1E1E1E"/>
<path fill-rule="evenodd" clip-rule="evenodd" d="M0 16C0 7.16345 7.16344 0 16 0H60C62.7614 0 65.3595 0.69957 67.6265 1.93112C71.7723 4.18324 74.8114 8.2144 75.7192 13H247C255.837 13 263 20.1635 263 29V247C263 255.837 255.837 263 247 263H16C7.16344 263 0 255.837 0 247V28V16ZM213.749 136.727C214.669 137.649 215.651 138.509 216.572 139.307C219.64 142.01 222.831 144.835 222.953 149.319C222.892 151.96 221.787 154.356 219.762 156.198C214.915 160.682 195.033 175.793 177.851 188.446C150.728 208.408 138.149 217.069 134.406 218.359C132.688 218.973 131.583 219.28 130.478 219.28C129.313 219.28 128.208 218.912 126.551 218.359L126.551 218.359C122.808 217.069 110.228 208.408 83.1057 188.446C65.9239 175.854 45.9807 160.682 41.1943 156.198C39.1693 154.294 38.0648 151.96 38.0034 149.319C37.882 144.944 41.0043 142.131 44.0421 139.395L44.1398 139.307C45.1216 138.509 46.0421 137.649 46.9625 136.727L47.1466 136.543C50.2148 133.472 51.0125 132.612 50.9512 127.022C50.8898 124.504 50.7057 120.634 50.4603 116.089C50.0921 108.841 49.6625 99.812 49.6625 92.1341C49.6625 86.1146 49.908 80.4023 50.3375 73.7071C50.5216 70.206 51.1353 67.012 52.0557 64.1865C53.5284 59.6412 56.9034 57 61.3216 57C65.1768 57 67.9335 58.9546 70.8698 61.0365L70.8943 61.0539C71.2012 61.2996 71.5693 61.5453 71.9375 61.791C74.4734 63.5588 77.31 65.7279 80.3487 68.0516L80.3516 68.0538L80.3557 68.057L80.3692 68.0673C81.4418 68.8875 82.5395 69.7268 83.658 70.5745C90.5307 75.8569 97.6489 81.3236 103.049 84.5176C107.713 87.2816 109.308 87.2816 110.29 86.4217C111.026 85.7461 121.949 77.3311 124.465 75.4884C125.758 74.4756 127.308 73.8236 128.974 73.6268C129.281 73.5906 129.588 73.5621 129.896 73.5396C130.027 73.5301 130.168 73.5228 130.294 73.5228C130.526 73.5228 130.898 73.5579 131.066 73.575C131.124 73.581 131.183 73.5871 131.241 73.5934C133.049 73.7882 134.736 74.4003 136.185 75.4884C138.517 77.2082 149.624 85.8075 150.36 86.4217C151.342 87.2816 152.938 87.2816 157.601 84.5176C163.001 81.3236 170.119 75.8569 176.992 70.5745L177.828 69.9315L177.829 69.9311C181.759 66.9084 185.503 64.0283 188.713 61.791C188.897 61.6682 189.065 61.5453 189.234 61.4225C189.403 61.2996 189.572 61.1768 189.756 61.0539L189.78 61.0365C192.717 58.9546 195.473 57 199.328 57C203.685 57 207.122 59.5798 208.594 64.1865C209.515 67.012 210.067 70.206 210.312 73.7071C210.742 80.4023 210.988 86.1146 210.988 92.1341C210.988 99.812 210.558 108.841 210.19 116.089C210.134 117.474 210.078 118.796 210.025 120.036C209.905 122.867 209.803 125.271 209.76 127.022C209.639 132.536 210.474 133.388 213.442 136.417L213.565 136.543L213.749 136.727ZM65.7398 121.064C68.5012 119.406 87.5239 104.234 91.2057 101.04C94.7365 97.9774 94.712 96.2137 94.7041 95.6408C94.7037 95.6163 94.7034 95.5939 94.7034 95.5738C94.3374 92.3983 91.5452 89.6478 87.7138 85.8737L87.7137 85.8736L87.6466 85.8075L86.7875 84.9476C82.6148 80.7708 77.5216 76.8397 73.0421 73.5843C69.0534 70.636 66.2921 68.9775 64.083 68.9775C63.4693 68.9775 62.7943 69.1004 62.058 69.4075C60.5239 69.9603 58.8671 72.7858 58.5602 77.761L58.5348 78.1805C58.3023 82.0164 58.1328 84.811 58.1921 87.8345C58.1921 91.7041 58.4375 96.0038 58.8671 101.778C59.6648 112.404 60.9534 118.976 62.733 121.31C63.2852 121.986 63.6534 122.293 65.7398 121.064ZM172.929 85.7585C169.041 89.5888 166.312 92.2773 165.947 95.4509L165.946 95.4537C165.885 96.0705 165.707 97.851 169.444 100.856C173.126 104.05 192.149 119.222 194.91 120.88C196.997 122.17 197.365 121.801 197.917 121.126C199.697 118.792 200.985 112.219 201.783 101.593C202.274 95.8195 202.458 91.5199 202.458 87.7116C202.516 84.6681 202.352 81.9591 202.124 78.2031L202.124 78.2027L202.124 78.2025L202.09 77.6382C201.783 72.6629 200.126 69.8375 198.592 69.2846C197.856 68.9775 197.181 68.8547 196.567 68.8547C194.358 68.8547 191.597 70.5745 187.608 73.4614C183.128 76.7169 178.035 80.6479 173.863 84.8247L173.003 85.6846L172.929 85.7585ZM129.566 133.453C129.815 133.401 130.032 133.357 130.294 133.357C130.797 133.357 131.293 133.531 131.704 133.821C132.17 134.151 132.649 134.722 132.81 135.691C132.933 136.612 133.178 139.798 133.731 157.304L133.853 161.788L133.882 162.625V162.625C134.201 172.055 134.875 191.977 136.185 194.957C137.351 197.598 140.113 199.318 143.181 199.318C145.022 199.318 146.433 198.581 148.397 197.413C168.278 184.883 204.053 157.181 208.533 152.882C210.374 151.162 211.294 149.81 211.294 148.889C211.294 148.398 210.926 147.108 208.594 144.958C201.599 138.509 149.01 99.3206 139.008 92.8097C138.701 92.6255 138.333 92.3798 137.903 92.0727C135.817 90.6599 132.626 88.5101 130.233 88.5101C127.84 88.5101 124.649 90.6599 122.563 92.0727L121.458 92.8097C111.517 99.3206 58.8671 138.509 51.8716 144.958C49.5398 147.108 49.1716 148.336 49.1716 148.889C49.1716 149.81 50.0921 151.162 51.933 152.882C56.4125 157.12 92.1875 184.883 112.069 197.413C114.033 198.581 115.444 199.318 117.285 199.318C120.353 199.318 123.115 197.598 124.281 194.957C125.603 192.08 126.225 173.41 126.551 163.638L126.551 163.637L126.575 162.895L126.598 162.204L126.613 161.788L126.735 157.304C127.226 139.86 127.472 136.612 127.656 135.691C127.901 134.216 128.883 133.664 129.435 133.479C129.479 133.471 129.522 133.462 129.563 133.453L129.566 133.453ZM19.5 11C15.9101 11 13 13.9102 13 17.5C13 21.0898 15.9101 24 19.5 24H57.5C61.0899 24 64 21.0898 64 17.5C64 13.9102 61.0899 11 57.5 11H19.5Z" fill="white"/>
</svg>
