<svg width="240" height="188" viewBox="0 0 240 188" fill="none" xmlns="http://www.w3.org/2000/svg">
<rect width="240" height="188" fill="#1E1E1E"/>
<path fill-rule="evenodd" clip-rule="evenodd" d="M0 16C0 15.4477 0.0279822 14.902 0.0826062 14.3641C0.901966 6.296 7.71573 0 16 0H60C62.7614 0 65.3595 0.699555 67.6265 1.93111C71.7723 4.18323 74.8114 8.2144 75.7192 13H224C232.837 13 240 20.1634 240 29V172C240 180.837 232.837 188 224 188H16C7.16344 188 0 180.837 0 172V16ZM19.5 11C15.9101 11 13 13.9101 13 17.5C13 21.0899 15.9102 24 19.5 24H57.5C61.0899 24 64 21.0899 64 17.5C64 13.9101 61.0899 11 57.5 11H19.5Z" fill="#D9D9D9"/>
</svg>
